<?xml version="1.0" encoding="iso-8859-1"?>
<!-- Uploaded to: SVG Repo, www.svgrepo.com, Generator: SVG Repo Mixer Tools -->
<svg height="800px" width="800px" version="1.1" id="Layer_1" xmlns="http://www.w3.org/2000/svg" xmlns:xlink="http://www.w3.org/1999/xlink" 
	 viewBox="0 0 512 512" xml:space="preserve">
<circle style="fill:#FFD15D;" cx="256" cy="256" r="256"/>
<path style="fill:#F9B54C;" d="M508.092,300.768L331.219,123.895L246.519,321.22L256,398.222l95.397,95.396
	C432.178,461.157,492.582,388.71,508.092,300.768z"/>
<path style="fill:#D83E20;" d="M146.532,203.421c0-60.457,49.011-109.468,109.468-109.468s109.468,49.011,109.468,109.468
	C365.468,284.732,256,398.222,256,398.222S146.532,283.008,146.532,203.421z"/>
<path style="fill:#C1321F;" d="M256,93.953v304.269c0.022-0.024,109.468-113.498,109.468-194.801
	C365.468,142.964,316.457,93.953,256,93.953z"/>
<path style="fill:#FFFFFF;" d="M302.545,220.081c0,25.707-20.839,46.545-46.545,46.545s-46.545-20.839-46.545-46.545
	c0-34.133,24.448-78.139,46.545-78.139C279.414,141.939,302.545,183.691,302.545,220.081z"/>
<path style="fill:#E6F3FF;" d="M302.545,220.081c0-36.39-23.131-78.139-46.545-78.139v124.685
	C281.707,266.626,302.545,245.786,302.545,220.081z"/>
<circle style="fill:#84DBFF;" cx="256" cy="212.851" r="6.496"/>
<g>
	<circle style="fill:#FFD15D;" cx="237.244" cy="187.233" r="6.496"/>
	<circle style="fill:#FFD15D;" cx="237.244" cy="244.605" r="6.496"/>
</g>
<circle style="fill:#84DBFF;" cx="256" cy="163.426" r="6.496"/>
<g>
	<path style="fill:#31BAFD;" d="M262.496,212.856c0-3.587-2.908-6.496-6.496-6.496v12.991
		C259.587,219.351,262.496,216.443,262.496,212.856z"/>
	<path style="fill:#31BAFD;" d="M262.496,163.418c0-3.587-2.908-6.496-6.496-6.496v12.991
		C259.587,169.913,262.496,167.003,262.496,163.418z"/>
</g>
<circle style="fill:#84DBFF;" cx="225.694" cy="212.851" r="6.496"/>
<circle style="fill:#31BAFD;" cx="286.306" cy="212.851" r="6.496"/>
<g>
	<circle style="fill:#F4A200;" cx="271.894" cy="244.605" r="6.496"/>
	<circle style="fill:#F4A200;" cx="271.894" cy="187.233" r="6.496"/>
</g>
</svg>